<svg width="24" height="24" viewBox="0 0 24 24" fill="none" xmlns="http://www.w3.org/2000/svg">
<path d="M7 14L9.293 11.707C9.48053 11.5195 9.73484 11.4142 10 11.4142C10.2652 11.4142 10.5195 11.5195 10.707 11.707L12.293 13.293C12.4805 13.4805 12.7348 13.5858 13 13.5858C13.2652 13.5858 13.5195 13.4805 13.707 13.293L17 10M17 10V12.5M17 10H14.5" stroke="#949494" stroke-width="1.5" stroke-linecap="round" stroke-linejoin="round"/>
<path d="M22 12C22 16.714 22 19.071 20.535 20.535C19.072 22 16.714 22 12 22C7.286 22 4.929 22 3.464 20.535C2 19.072 2 16.714 2 12C2 7.286 2 4.929 3.464 3.464C4.93 2 7.286 2 12 2C16.714 2 19.071 2 20.535 3.464C21.509 4.438 21.835 5.807 21.945 8" stroke="#949494" stroke-width="1.5" stroke-linecap="round"/>
</svg>
