<svg width="24" height="24" viewBox="0 0 24 24" fill="none" xmlns="http://www.w3.org/2000/svg">
<path d="M1.79026 0.625016C0.827263 0.165016 -0.230737 1.04502 0.0442634 2.07602L2.06026 9.60902C2.11079 9.79834 2.21582 9.96865 2.36231 10.0988C2.50881 10.2289 2.6903 10.3132 2.88426 10.341L12.7683 11.753C13.0543 11.793 13.0543 12.207 12.7683 12.248L2.88526 13.659C2.69131 13.6869 2.50981 13.7711 2.36331 13.9012C2.21682 14.0314 2.11179 14.2017 2.06126 14.391L0.0442634 21.928C-0.230737 22.958 0.827263 23.838 1.79026 23.379L23.2883 13.13C24.2373 12.678 24.2373 11.326 23.2883 10.873L1.79026 0.625016Z" fill="#2B59FF"/>
</svg>
