<svg width="23" height="25" viewBox="0 0 23 25" fill="none" xmlns="http://www.w3.org/2000/svg">
<path d="M2.97623 13.0355L11.993 4.01867C12.4272 3.58456 12.9427 3.24024 13.51 3.00534C14.0773 2.77045 14.6853 2.64959 15.2993 2.64967C15.9133 2.64975 16.5212 2.77076 17.0885 3.0058C17.6557 3.24084 18.1711 3.5853 18.6052 4.01952C19.0393 4.45373 19.3836 4.9692 19.6185 5.53649C19.8534 6.10378 19.9743 6.71177 19.9742 7.32577C19.9741 7.93976 19.8531 8.54773 19.618 9.11496C19.383 9.68219 19.0385 10.1976 18.6043 10.6317L7.78553 21.4505C7.38674 21.8493 6.84586 22.0733 6.28188 22.0733C5.7179 22.0733 5.17702 21.8493 4.77823 21.4505C4.37944 21.0517 4.1554 20.5108 4.1554 19.9468C4.1554 19.3828 4.37944 18.842 4.77823 18.4432L14.3951 8.82627C14.6203 8.58457 14.743 8.26489 14.7371 7.93458C14.7313 7.60427 14.5975 7.28911 14.3639 7.05551C14.1303 6.82191 13.8151 6.6881 13.4848 6.68227C13.1545 6.67644 12.8348 6.79905 12.5931 7.02427L2.97623 16.6412C2.09929 17.5181 1.60663 18.7075 1.60663 19.9477C1.60663 21.1878 2.09929 22.3772 2.97623 23.2542C3.85317 24.1311 5.04255 24.6238 6.28273 24.6238C7.52291 24.6238 8.71229 24.1311 9.58923 23.2542L20.4063 12.4337C21.7352 11.0735 22.4743 9.24418 22.4632 7.3426C22.4521 5.44101 21.6918 3.62047 20.3472 2.27582C19.0025 0.931177 17.182 0.170864 15.2804 0.159791C13.3788 0.148717 11.5495 0.887775 10.1893 2.21667L1.17423 11.2318C0.949011 11.4735 0.826402 11.7931 0.83223 12.1235C0.838058 12.4538 0.971868 12.7689 1.20547 13.0025C1.43907 13.2361 1.75423 13.3699 2.08454 13.3758C2.41485 13.3816 2.73453 13.259 2.97623 13.0338V13.0355Z" fill="#5D5D5D"/>
</svg>
